<?xml version="1.0" encoding="UTF-8"?>
<svg version="1.1" xmlns="http://www.w3.org/2000/svg" width="282" height="122">
<path d="M0 0 C0.79927414 0.3100145 1.59854828 0.62002899 2.42204285 0.93943787 C5.00021768 1.94110255 7.57427808 2.95291034 10.1484375 3.96484375 C11.92507441 4.65702036 13.70201254 5.34842431 15.47924805 6.0390625 C18.95170191 7.38908519 22.42289341 8.74227037 25.89306641 10.09814453 C31.36162236 12.23239405 36.84564296 14.32473082 42.3359375 16.40234375 C48.82044278 18.867648 55.30126327 21.34232787 61.7734375 23.83984375 C62.54405518 24.13503906 63.31467285 24.43023437 64.10864258 24.734375 C69.4080249 26.78693115 69.4080249 26.78693115 70.5234375 27.90234375 C70.59615491 30.2554793 70.60714618 32.61068043 70.5859375 34.96484375 C70.57691406 36.25519531 70.56789062 37.54554687 70.55859375 38.875 C70.54119141 40.37353516 70.54119141 40.37353516 70.5234375 41.90234375 C64.11744427 42.08737742 58.50869945 41.49145184 52.2734375 40.08984375 C41.75407207 37.8463011 31.18203667 36.31492918 20.5234375 34.90234375 C36.85993913 41.11326132 52.15275219 44.43709034 69.5234375 45.90234375 C72.40152967 46.16405891 75.27886164 46.43379541 78.15625 46.703125 C83.23991685 47.17669281 88.32433914 47.63803025 93.4108429 48.08009338 C110.16329646 49.54220271 110.16329646 49.54220271 111.5234375 50.90234375 C111.6163101 52.31459421 111.64090522 53.73143309 111.63696289 55.14672852 C111.63688736 56.04758682 111.63681183 56.94844513 111.63673401 57.87660217 C111.63157272 58.85576096 111.62641144 59.83491974 111.62109375 60.84375 C111.61897133 62.33986061 111.61897133 62.33986061 111.61680603 63.86619568 C111.61118864 67.06577499 111.59863321 70.26528544 111.5859375 73.46484375 C111.58092474 75.6282542 111.57636145 77.79166574 111.57226562 79.95507812 C111.56121357 85.270857 111.54445854 90.58659546 111.5234375 95.90234375 C79.98598746 98.19686411 48.32335035 98.05614052 16.72315669 98.03666925 C11.21180473 98.0340915 5.70045422 98.03649686 0.18910217 98.03805542 C-9.01919868 98.03985658 -18.22749141 98.03752018 -27.43579102 98.03271484 C-38.08377693 98.02722247 -48.73174384 98.02907869 -59.37972933 98.03454125 C-68.57271267 98.03906786 -77.76569028 98.03972677 -86.95867437 98.03710258 C-92.42940836 98.03554414 -97.90013336 98.03533531 -103.37086678 98.03863907 C-108.48230075 98.04151294 -113.59370981 98.03955121 -118.70514107 98.03374481 C-120.58337869 98.03241689 -122.46161839 98.03281187 -124.33985519 98.03500748 C-126.89070728 98.03771636 -129.44147802 98.03434178 -131.99232483 98.02932739 C-133.12045195 98.03267348 -133.12045195 98.03267348 -134.27136952 98.03608716 C-139.36240903 98.01649722 -139.36240903 98.01649722 -140.4765625 96.90234375 C-140.76898229 91.09614519 -140.79059782 85.28746818 -140.82666016 79.47460938 C-140.84323248 77.51322576 -140.87053932 75.55190285 -140.90869141 73.59082031 C-140.96332431 70.76986214 -140.98531217 67.95032144 -141 65.12890625 C-141.02266937 64.25070221 -141.04533875 63.37249817 -141.06869507 62.46768188 C-141.06070249 60.1753935 -141.00048202 58.13384938 -140.4765625 55.90234375 C-138.27172852 53.94238281 -138.27172852 53.94238281 -135.4765625 52.90234375 C-134.63552979 52.57379395 -133.79449707 52.24524414 -132.92797852 51.90673828 C-132.03780029 51.61911621 -131.14762207 51.33149414 -130.23046875 51.03515625 C-128.73616333 50.54595703 -128.73616333 50.54595703 -127.21166992 50.046875 C-126.16470947 49.71042969 -125.11774902 49.37398437 -124.0390625 49.02734375 C-121.87978523 48.3229102 -119.72092872 47.61718556 -117.5625 46.91015625 C-116.51932617 46.56887695 -115.47615234 46.22759766 -114.40136719 45.87597656 C-109.55676038 44.26326438 -104.77076352 42.5031274 -99.98828125 40.71484375 C-97.4765625 39.90234375 -97.4765625 39.90234375 -94.4765625 39.90234375 C-94.53457031 38.85433594 -94.59257813 37.80632813 -94.65234375 36.7265625 C-94.69924381 35.34770075 -94.74474372 33.96879088 -94.7890625 32.58984375 C-94.83095703 31.89955078 -94.87285156 31.20925781 -94.91601562 30.49804688 C-94.96484375 28.4765625 -94.96484375 28.4765625 -94.4765625 24.90234375 C-90.50433803 21.16427146 -83.9689508 19.86934009 -78.8515625 18.15234375 C-76.76512864 17.44025476 -74.67919716 16.72669226 -72.59375 16.01171875 C-71.03865723 15.47901367 -71.03865723 15.47901367 -69.45214844 14.93554688 C-65.27107562 13.48376642 -61.12244091 11.95123534 -56.9765625 10.40234375 C-47.05438277 6.70818741 -37.06818521 3.192825 -27.04199219 -0.20898438 C-25.36617278 -0.78949281 -23.69926626 -1.39659234 -22.04394531 -2.03320312 C-21.28178711 -2.31744141 -20.51962891 -2.60167969 -19.734375 -2.89453125 C-19.07840332 -3.15073242 -18.42243164 -3.40693359 -17.74658203 -3.67089844 C-11.52507141 -4.84052638 -5.6798564 -2.25252575 0 0 Z M-26.05078125 3.90234375 C-26.91888428 4.21395447 -27.7869873 4.52556519 -28.68139648 4.84661865 C-31.50995612 5.86242374 -34.33699347 6.88239841 -37.1640625 7.90234375 C-41.00724026 9.28414772 -44.85121006 10.66373957 -48.6953125 12.04296875 C-50.10788582 12.55020477 -50.10788582 12.55020477 -51.54899597 13.06768799 C-59.61522618 15.96073001 -67.7014205 18.79169267 -75.81323242 21.5546875 C-76.61349854 21.82925781 -77.41376465 22.10382812 -78.23828125 22.38671875 C-78.89787842 22.61069336 -79.55747559 22.83466797 -80.23706055 23.06542969 C-83.36089427 24.23282334 -86.41136264 25.58868667 -89.4765625 26.90234375 C-89.4765625 49.01234375 -89.4765625 71.12234375 -89.4765625 93.90234375 C-86.5065625 93.90234375 -83.5365625 93.90234375 -80.4765625 93.90234375 C-80.4765625 78.72234375 -80.4765625 63.54234375 -80.4765625 47.90234375 C-62.6565625 47.90234375 -44.8365625 47.90234375 -26.4765625 47.90234375 C-26.1465625 63.08234375 -25.8165625 78.26234375 -25.4765625 93.90234375 C-22.1765625 93.90234375 -18.8765625 93.90234375 -15.4765625 93.90234375 C-15.4765625 63.21234375 -15.4765625 32.52234375 -15.4765625 0.90234375 C-19.15303009 0.90234375 -22.61984796 2.65908535 -26.05078125 3.90234375 Z M-11.4765625 28.90234375 C-11.4765625 50.35234375 -11.4765625 71.80234375 -11.4765625 93.90234375 C-7.5165625 93.90234375 -3.5565625 93.90234375 0.5234375 93.90234375 C0.5234375 83.67234375 0.5234375 73.44234375 0.5234375 62.90234375 C10.4234375 62.90234375 20.3234375 62.90234375 30.5234375 62.90234375 C30.5234375 73.13234375 30.5234375 83.36234375 30.5234375 93.90234375 C34.4834375 93.90234375 38.4434375 93.90234375 42.5234375 93.90234375 C42.5234375 78.39234375 42.5234375 62.88234375 42.5234375 46.90234375 C28.68196517 41.91941371 14.84942547 36.94486468 0.8984375 32.27734375 C-0.62813477 31.76397461 -0.62813477 31.76397461 -2.18554688 31.24023438 C-3.58643555 30.77520508 -3.58643555 30.77520508 -5.015625 30.30078125 C-5.83240723 30.02927246 -6.64918945 29.75776367 -7.49072266 29.47802734 C-9.45211453 28.80953349 -9.45211453 28.80953349 -11.4765625 28.90234375 Z M-101.75 45.94921875 C-102.38837799 46.1616925 -103.02675598 46.37416626 -103.68447876 46.59307861 C-105.04494446 47.04633962 -106.40515614 47.50036364 -107.76513672 47.95507812 C-109.80753797 48.63763113 -111.85095963 49.31705417 -113.89453125 49.99609375 C-115.22141817 50.43861023 -116.54824285 50.88131336 -117.875 51.32421875 C-119.06786621 51.7222168 -120.26073242 52.12021484 -121.48974609 52.53027344 C-126.5077417 54.257226 -131.48922082 56.08876496 -136.4765625 57.90234375 C-136.4765625 69.78234375 -136.4765625 81.66234375 -136.4765625 93.90234375 C-133.5065625 93.90234375 -130.5365625 93.90234375 -127.4765625 93.90234375 C-127.4765625 87.96234375 -127.4765625 82.02234375 -127.4765625 75.90234375 C-119.2265625 75.90234375 -110.9765625 75.90234375 -102.4765625 75.90234375 C-102.4765625 81.84234375 -102.4765625 87.78234375 -102.4765625 93.90234375 C-99.8365625 93.90234375 -97.1965625 93.90234375 -94.4765625 93.90234375 C-94.4765625 77.40234375 -94.4765625 60.90234375 -94.4765625 43.90234375 C-96.86297001 43.90234375 -99.54094401 45.21356967 -101.75 45.94921875 Z " fill="#010101" transform="translate(154.4765625,21.09765625)"/>
</svg>
